<svg fill="none" height="40" viewBox="0 0 41 40" width="41" xmlns="http://www.w3.org/2000/svg" xmlns:xlink="http://www.w3.org/1999/xlink"><linearGradient id="a" gradientUnits="userSpaceOnUse" x1="20.4296" x2="20.4296" y1="0" y2="40"><stop offset="0" stop-color="#00b8f0"/><stop offset=".0001" stop-color="#00b8f0"/><stop offset=".739583" stop-color="#b2eefc"/></linearGradient><path clip-rule="evenodd" d="m20.4296 40c-11.04575 0-20.000035-8.9543-20.000035-20 0-11.04571 8.954285-20 20.000035-20 11.0457 0 20 8.95429 20 20 0 11.0457-8.9543 20-20 20zm1.8764-25.6139c0-.976.096-1.4983 1.5566-1.4983h1.9486v-3.74058h-3.12c-3.7475 0-5.0663 1.81488-5.0663 4.86518v2.2457h-2.3372v3.7394h2.3372v10.8514h4.6754v-10.8514h3.12l.4137-3.7394h-3.5337z" fill="url(#a)" fill-rule="evenodd"/></svg>