<svg fill="none" height="14" viewBox="0 0 19 14" width="19" xmlns="http://www.w3.org/2000/svg"><path clip-rule="evenodd" d="m9.0723.371338c-4.091 0-7.609 2.655842-9.0000039 6.424632 1.3910039 3.76883 4.9090039 6.42463 9.0000039 6.42463s7.609-2.6558 9-6.42463c-1.391-3.76879-4.909-6.424632-9-6.424632zm-.00001 10.707362c-2.291 0-4.091-1.8839-4.091-4.28276s1.8-4.28276 4.091-4.28276c2.29101 0 4.09101 1.8839 4.09101 4.28276s-1.8 4.28276-4.09101 4.28276zm.00002-6.85264c-1.391 0-2.455 1.11393-2.455 2.56985s1.064 2.56986 2.455 2.56986c1.39099 0 2.45499-1.11394 2.45499-2.56986s-1.064-2.56985-2.45499-2.56985z" fill="#9fa3a7" fill-rule="evenodd"/></svg>