<svg fill="none" height="81" viewBox="0 0 72 81" width="72" xmlns="http://www.w3.org/2000/svg" xmlns:xlink="http://www.w3.org/1999/xlink"><linearGradient id="a"><stop offset="0" stop-color="#87c5fc" stop-opacity=".384001"/><stop offset=".52" stop-color="#cce2e6"/><stop offset="1" stop-color="#8fa1bb"/></linearGradient><linearGradient id="b" gradientUnits="userSpaceOnUse" x1="157.928" x2="219.153" xlink:href="#a" y1="595.417" y2="595.417"/><linearGradient id="c" gradientUnits="userSpaceOnUse" x1="210.409" x2="300.205" xlink:href="#a" y1="1014.01" y2="1014.01"/><linearGradient id="d" gradientUnits="userSpaceOnUse" x1="89.5531" x2="109.961" xlink:href="#a" y1="595.417" y2="595.417"/><linearGradient id="e" gradientUnits="userSpaceOnUse" x1="25.5038" x2="25.5038" y1="28.0416" y2="54.4172"><stop offset="0" stop-color="#1792c7"/><stop offset="1" stop-color="#00b8f0"/></linearGradient><linearGradient id="f"><stop offset="0" stop-color="#00b8f0"/><stop offset=".0001" stop-color="#00b8f0"/><stop offset=".739583" stop-color="#b2eefc"/></linearGradient><linearGradient id="g" gradientUnits="userSpaceOnUse" x1="31.8689" x2="31.8689" xlink:href="#f" y1="28.0198" y2="54.3954"/><linearGradient id="h"><stop offset="0" stop-color="#fff"/><stop offset=".52" stop-color="#cce2e6"/><stop offset="1" stop-color="#8fa1bb"/></linearGradient><linearGradient id="i" gradientUnits="userSpaceOnUse" x1="278.273" x2="227.639" xlink:href="#h" y1="362.088" y2="362.088"/><linearGradient id="j" gradientUnits="userSpaceOnUse" x1="29.0483" x2="29.0483" xlink:href="#f" y1=".349609" y2="11.2737"/><linearGradient id="k" gradientUnits="userSpaceOnUse" x1="29.0483" x2="29.0483" xlink:href="#f" y1="75.3289" y2="80.791"/><linearGradient id="l" gradientUnits="userSpaceOnUse" x1="127.485" x2="103.352" xlink:href="#h" y1="362.088" y2="362.088"/><path d="m60.6594 52.7361c-.5128-.4904-1.191-.7574-1.8918-.7447-.7007.0127-1.3694.3041-1.865.8127-.4956.5087-.7795 1.1949-.7918 1.9142-.0124.7192.2477 1.4153.7255 1.9416.4199.4298.753.9404.9803 1.5025.2273.5622.3442 1.1648.3442 1.7734s-.1169 1.2113-.3442 1.7734c-.2273.5622-.5604 1.0728-.9803 1.5026-.4778.5263-.7379 1.2224-.7255 1.9416.0123.7192.2962 1.4055.7918 1.9141.4956.5087 1.1643.8 1.865.8127.7008.0127 1.379-.2543 1.8918-.7447 1.8567-1.9115 2.8992-4.5006 2.8992-7.1997s-1.0425-5.2881-2.8992-7.1997z" fill="url(#b)"/><path d="m66.1411 46.7958c-.5709-.5024-1.3261-.776-2.1064-.763s-1.5248.3116-2.0766.8327c-.5518.5212-.8679 1.2243-.8817 1.9612-.0138.737.2759 1.4502.8079 1.9894 2.624 2.4879 4.0972 5.8564 4.0972 9.368s-1.4732 6.8801-4.0972 9.368c-.532.5392-.8217 1.2524-.8079 1.9894.0138.7369.3299 1.44.8817 1.9612.5518.5211 1.2963.8197 2.0766.8327s1.5355-.2606 2.1064-.763c3.7521-3.5547 5.859-8.3691 5.859-13.3883s-2.1069-9.8336-5.859-13.3883z" fill="url(#c)"/><path d="m46.8839 11.2737h-35.6713c-6.19253 0-11.2126 5.0318-11.2126 11.2388v41.5776c0 6.207 5.02007 11.2388 11.2126 11.2388h35.6713c6.1926 0 11.2126-5.0318 11.2126-11.2388v-41.5776c0-6.207-5.02-11.2388-11.2126-11.2388z" fill="#333"/><path d="m56.5149 52.7287c-.577.5321-.9011 1.2532-.9011 2.0052 0 .7519.3241 1.4731.9011 2.0051.4782.4393.8576.9611 1.1165 1.5357.2589.5745.3921 1.1904.3921 1.8125 0 .622-.1332 1.2379-.3921 1.8124-.2589.5746-.6383 1.0964-1.1165 1.5357-.577.5321-.9011 1.2532-.9011 2.0052 0 .7519.3241 1.4731.9011 2.0051.2092.1748.4443.3213.6984.4351.5843-1.3148.8844-2.722.8832-4.1427v-11.747c-.5959.0935-1.1472.3506-1.5816.7377z" fill="url(#d)"/><path d="m40.3438 32.0333-3.733-3.4124c-.8784-.91-2.4155-.6825-3.0743.2275l-10.5403 12.9672-6.1485-5.4599c-.8784-.6824-2.4155-.6824-3.0743.2275l-3.2938 4.095c-.87839.91-.6588 2.5024.2196 3.1849l11.4186 10.0098c.4392.455 1.098.6825 1.7568.455.6587 0 1.3175-.2275 1.5371-.91l14.9321-18.1996c1.098-.91.8784-2.5025 0-3.185z" fill="url(#e)"/><path d="m46.6642 32.0116-3.7331-3.4125c-.8783-.91-2.4155-.6825-3.0742.2275l-10.5404 12.9673-6.1485-5.4599c-.8783-.6825-2.4155-.6825-3.0742.455l-3.2939 3.8674c-.6588.91-.6588 2.5025.2196 3.185l11.4187 10.0098c.4392.455 1.0979.6825 1.7567.455.6588 0 1.3175-.2275 1.5371-.91l14.9322-18.1997c1.0979-.91.8783-2.2749 0-3.1849z" fill="url(#g)"/><path d="m58.0967 23.191h3.0952c.3108 0 .6186.0649.9057.1911.2872.1261.5481.311.7679.5441s.3941.5099.5131.8145c.1189.3045.1801.631.1801.9606v12.3586c0 .6658-.2493 1.3043-.6932 1.7751s-1.0459.7353-1.6736.7353h-3.0952z" fill="url(#i)"/><path d="m43.3241 2.1703c0-.48288-.2005-.94598-.5575-1.287423-.3569-.341446-.8411-.533268-1.3459-.533268h-24.8019c-.5049 0-.989.191822-1.346.533268-.357.341443-.5575.804543-.5575 1.287423-.0016 2.42756-.5947 4.82136-1.7321 6.99145l-1.066 2.11195h34.2621l-1.123-2.16657c-1.1289-2.15359-1.7217-4.52773-1.7322-6.93683z" fill="url(#j)"/><path d="m18.3509 80.791h21.3948c1.1121-.0166 2.1972-.3307 3.1324-.9066.9351-.576 1.6831-1.3909 2.1591-2.3524l1.1421-2.2031h-34.2621l1.1231 2.1666c.472.9711 1.2206 1.7954 2.1599 2.3782.9392.5829 2.0312.9008 3.1507.9173z" fill="url(#k)"/><path d="m59.5863 23.191h-1.4896v17.3793h1.4896z" fill="url(#l)"/></svg>