<svg fill="none" height="83" viewBox="0 0 133 83" width="133" xmlns="http://www.w3.org/2000/svg" xmlns:xlink="http://www.w3.org/1999/xlink"><linearGradient id="a"><stop offset="0" stop-color="#6fc7a1"/><stop offset="1" stop-color="#dbfbdf"/></linearGradient><linearGradient id="b" gradientUnits="userSpaceOnUse" x1="57.8111" x2="57.8111" xlink:href="#a" y1="17.5631" y2="29.9967"/><linearGradient id="c" gradientUnits="userSpaceOnUse" x1="42.7121" x2="42.7121" xlink:href="#a" y1="17.5175" y2="43.6282"/><linearGradient id="d" gradientUnits="userSpaceOnUse" x1="83.3081" x2="83.3081" xlink:href="#a" y1="62.7786" y2="83.19"/><linearGradient id="e" gradientUnits="userSpaceOnUse" x1="93.5766" x2="93.5766" y1="2.8277" y2="39.9996"><stop offset="0" stop-color="#1792c7"/><stop offset="1" stop-color="#00b8f0"/></linearGradient><linearGradient id="f" gradientUnits="userSpaceOnUse" x1="102.572" x2="102.572" y1="2.79703" y2="39.9689"><stop offset="0" stop-color="#00b8f0"/><stop offset=".0001" stop-color="#00b8f0"/><stop offset=".739583" stop-color="#b2eefc"/></linearGradient><rect fill="url(#b)" height="12.4335" rx="3" transform="matrix(.9556235 -.29459077 .29459077 .9556235 -3.186441 13.973196)" width="26.0485" x="44.7869" y="17.5631"/><ellipse cx="58.7161" cy="19.6661" fill="#fff" rx="4.2302" ry="4.08448" transform="matrix(.9556235 -.29459077 .29459077 .9556235 -3.187837 18.169934)"/><rect fill="url(#c)" height="26.1107" rx="3" transform="matrix(.80864341 .5882991 -.5882991 .80864341 13.244958 -5.684773)" width="54.7023" x="15.361" y="17.5175"/><ellipse cx="29.3608" cy="43.5783" fill="#fff" rx="8.88351" ry="8.5775" transform="matrix(.80864341 .5882991 -.5882991 .80864341 31.255457 -8.933937)"/><rect fill="url(#d)" height="20.4114" rx="3" transform="matrix(.94356651 -.33118309 .33118309 .94356651 -17.296454 24.051991)" width="42.7621" x="61.927" y="62.7786"/><ellipse cx="84.9097" cy="65.3476" fill="#fff" rx="6.94445" ry="6.70524" transform="matrix(.94356651 -.33118309 .33118309 .94356651 -16.850269 31.80845)"/><path d="m114.548 8.45337-5.275-4.80925c-1.241-1.28247-3.414-.96185-4.345.32061l-14.8951 18.27517-8.689-7.6948c-1.2413-.9619-3.4136-.9619-4.3445.3206l-4.6549 5.7711c-1.2413 1.2825-.9309 3.5268.3103 4.4886l16.1368 14.1072c.6207.6412 1.5517.9618 2.4826.6412.931 0 1.862-.3206 2.1723-1.2825l21.1015-25.6493c1.552-1.2825 1.242-3.52678 0-4.48863z" fill="url(#e)"/><path d="m123.48 8.4227-5.275-4.80925c-1.241-1.28247-3.414-.96185-4.345.32061l-14.8952 18.27514-8.689-7.6948c-1.2413-.9618-3.4136-.9618-4.3446.6412l-4.6548 5.4505c-.931 1.2825-.931 3.5268.3103 4.4887l16.1368 14.1071c.6207.6412 1.5516.9619 2.4825.6412.931 0 1.862-.3206 2.172-1.2824l21.102-25.6494c1.552-1.2824 1.242-3.20614 0-4.4886z" fill="url(#f)"/></svg>