<svg fill="none" height="40" viewBox="0 0 41 40" width="41" xmlns="http://www.w3.org/2000/svg" xmlns:xlink="http://www.w3.org/1999/xlink"><linearGradient id="a" gradientUnits="userSpaceOnUse" x1="20.3685" x2="20.3685" y1="0" y2="40"><stop offset="0" stop-color="#00b8f0"/><stop offset=".0001" stop-color="#00b8f0"/><stop offset=".739583" stop-color="#b2eefc"/></linearGradient><path clip-rule="evenodd" d="m20.3685 40c-11.04568 0-19.99997-8.9543-19.99997-20 0-11.04571 8.95429-20 19.99997-20 11.0457 0 20 8.95429 20 20 0 11.0457-8.9543 20-20 20zm-9.4733-10.2665h4.4115v-12.368h-4.4115zm2.2354-18.3277c-1.5097 0-2.496.9222-2.496 2.136 0 1.1874.9578 2.1371 2.4378 2.1371h.0285c1.5383 0 2.496-.9497 2.496-2.1371-.0285-1.2138-.9577-2.136-2.4663-2.136zm18.0825 11.2374c0-3.8-2.1772-5.568-5.0777-5.568-2.344 0-3.3898 1.2-3.976 2.0434v-1.7531h-4.4126c.0583 1.1623 0 12.368 0 12.368h4.4126v-6.9063c0-.3691.0285-.7394.1451-1.0023.3177-.7394 1.0446-1.504 2.2629-1.504 1.5965 0 2.2354 1.1349 2.2354 2.7977v6.6149h4.4103zm-9.0833-3.4832c.0091-.0137.0205-.0285.0297-.0411v.0411z" fill="url(#a)" fill-rule="evenodd"/></svg>