<svg enable-background="new 0 0 140 24" viewBox="0 0 140 24" xmlns="http://www.w3.org/2000/svg" xmlns:xlink="http://www.w3.org/1999/xlink"><linearGradient id="a" gradientTransform="matrix(1 0 0 -1 0 23.89)" gradientUnits="userSpaceOnUse" x1="23.8147" x2="23.8147" y1="22.9209" y2="4.3296"><stop offset="0" stop-color="#1792c7"/><stop offset="1" stop-color="#00b8f0"/></linearGradient><linearGradient id="b" gradientTransform="matrix(1 0 0 -1 0 23.89)" gradientUnits="userSpaceOnUse" x1="28.4027" x2="28.4027" y1="22.9363" y2="4.3449"><stop offset="0" stop-color="#00b8f0"/><stop offset=".0001" stop-color="#00b8f0"/><stop offset=".7396" stop-color="#b2eefc"/></linearGradient><g fill="#333"><path d="m16.8 10.5c0 .5-.1.9-.1 1.4h-11.5c.3 1.7 1.5 2.7 3.2 2.7 1.3 0 2.3-.6 2.8-1.4h5.3c-1.1 3.5-4.2 5.7-8.1 5.7-4.8-.1-8.4-3.6-8.4-8.3s3.6-8.1 8.4-8.1c4.9-.1 8.4 3.5 8.4 8zm-11.5-1.6h6.2c-.4-1.5-1.5-2.4-3.1-2.4s-2.7.9-3.1 2.4z"/><path d="m51.7 10.5c0 .5-.1.9-.1 1.4h-11.4c.3 1.7 1.5 2.7 3.2 2.7 1.3 0 2.3-.6 2.8-1.4h5.3c-1.1 3.5-4.2 5.7-8.1 5.7-4.8 0-8.4-3.5-8.4-8.2s3.6-8.1 8.4-8.1c4.9-.2 8.3 3.4 8.3 7.9zm-11.5-1.6h6.2c-.5-1.5-1.6-2.4-3.2-2.4-1.4 0-2.5.9-3 2.4z"/><path d="m63.3 2.8v4.8h-2.1c-1.9 0-2.7.8-2.7 2.8v7.8h-5.3v-15.3h3.6l.8 1.7c1.1-1.3 2.4-1.7 4.3-1.7z"/><path d="m81.5 2.9-6.4 14.7c-2.1 4.7-4 6.4-7.9 6.4h-1.8v-4.6h1.4c2.1 0 2.6-.6 3.3-2.5l-6.3-14h5.8l3.2 8.5 3-8.5z"/><path d="m99.3 10.6c0 4.8-3.3 8.2-8.1 8.2-1.4 0-2.7-.4-3.7-1v6.1h-5.2v-21h3.7l.6 1.2c1.3-1.1 2.9-1.7 4.7-1.7 4.7 0 8 3.4 8 8.2zm-5.3 0c0-2.1-1.4-3.5-3.5-3.5s-3.5 1.5-3.5 3.5c0 2.1 1.4 3.5 3.5 3.5 2 0 3.5-1.5 3.5-3.5z"/><path d="m118.1 2.9v15.3h-4.1l-.5-1.1c-1.3 1-2.8 1.6-4.7 1.6-4.7 0-8.1-3.4-8.1-8.2 0-4.7 3.3-8.1 8.1-8.1 1.8 0 3.4.6 4.7 1.7l.6-1.2zm-5 7.7c0-2-1.4-3.5-3.5-3.5-2 0-3.5 1.5-3.5 3.5s1.4 3.5 3.5 3.5 3.5-1.5 3.5-3.5z"/><path d="m137.5 2.9-6.4 14.7c-2.1 4.7-4 6.4-7.9 6.4h-1.8v-4.6h1.4c2.1 0 2.6-.6 3.3-2.5l-6.3-14.1h5.8l3.2 8.5 3-8.5h5.7z"/></g><path d="m34.5 3.8-2.7-2.4c-.6-.6-1.7-.5-2.2.2l-7.6 9.1-4.4-3.8c-.6-.5-1.7-.5-2.2.2l-2.4 2.8c-.6.6-.5 1.8.2 2.2l8.2 7.1c.3.3.8.5 1.3.3.5 0 .9-.2 1.1-.6l10.7-12.9c.8-.6.6-1.7 0-2.2z" fill="url(#a)"/><path d="m39.1 3.8-2.7-2.4c-.6-.6-1.7-.5-2.2.2l-7.6 9.1-4.4-3.8c-.6-.5-1.7-.5-2.2.3l-2.4 2.7c-.5.6-.5 1.8.2 2.2l8.2 7.1c.3.3.8.5 1.3.3.5 0 .9-.2 1.1-.6l10.7-12.9c.8-.6.6-1.6 0-2.2z" fill="url(#b)"/></svg>