<svg fill="none" height="108" viewBox="0 0 69 108" width="69" xmlns="http://www.w3.org/2000/svg" xmlns:xlink="http://www.w3.org/1999/xlink"><linearGradient id="a"><stop offset="0" stop-color="#6fc7a1"/><stop offset="1" stop-color="#dbfbdf"/></linearGradient><linearGradient id="b" gradientUnits="userSpaceOnUse" x1="27.0663" x2="24.0023" xlink:href="#a" y1="9.16596" y2="15.3478"/><linearGradient id="c" gradientUnits="userSpaceOnUse" x1="42.2483" x2="50.7886" xlink:href="#a" y1="11.6852" y2="17.6657"/><linearGradient id="d" gradientUnits="userSpaceOnUse" x1="60.6746" x2="54.8945" xlink:href="#a" y1="25.9337" y2="21.6628"/><linearGradient id="e" gradientUnits="userSpaceOnUse" x1="21.931" x2="16.1509" xlink:href="#a" y1="46.4143" y2="42.1434"/><linearGradient id="f" gradientUnits="userSpaceOnUse" x1="13.0802" x2="16.416" xlink:href="#a" y1="31.6447" y2="30.3087"/><linearGradient id="g" gradientUnits="userSpaceOnUse" x1="50.651" x2="46.5492" xlink:href="#a" y1="38.1474" y2="42.1858"/><linearGradient id="h"><stop offset="0" stop-color="#00b8f0"/><stop offset=".0001" stop-color="#00b8f0"/><stop offset=".739583" stop-color="#b2eefc"/></linearGradient><linearGradient id="i" gradientUnits="userSpaceOnUse" x1="30.3336" x2="30.3336" xlink:href="#h" y1="73.0994" y2="108"/><linearGradient id="j"><stop offset="0" stop-color="#1792c7"/><stop offset="1" stop-color="#00b8f0"/></linearGradient><linearGradient id="k" gradientUnits="userSpaceOnUse" x1="27.0575" x2="31.3271" xlink:href="#j" y1="6.3666" y2="2.38881"/><linearGradient id="l" gradientUnits="userSpaceOnUse" x1="26.9967" x2="32.0195" xlink:href="#h" y1="3.823" y2="-.693156"/><linearGradient id="m" gradientUnits="userSpaceOnUse" x1="29.8457" x2="35.0814" xlink:href="#h" y1="7.14195" y2="2.85345"/><linearGradient id="n" gradientUnits="userSpaceOnUse" x1="24.6562" x2="29.6789" xlink:href="#h" y1="5.6648" y2="1.14864"/><linearGradient id="o" gradientUnits="userSpaceOnUse" x1="27.505" x2="32.7407" xlink:href="#h" y1="8.98369" y2="4.69518"/><linearGradient id="p" gradientUnits="userSpaceOnUse" x1="22.4043" x2="27.4271" xlink:href="#h" y1="7.43659" y2="2.92043"/><linearGradient id="q" gradientUnits="userSpaceOnUse" x1="25.2532" x2="30.4889" xlink:href="#h" y1="10.7555" y2="6.46697"/><linearGradient id="r" gradientUnits="userSpaceOnUse" x1="22.5994" x2="26.869" xlink:href="#j" y1="35.9972" y2="32.0194"/><linearGradient id="s" gradientUnits="userSpaceOnUse" x1="22.539" x2="27.5617" xlink:href="#h" y1="33.4537" y2="28.9375"/><linearGradient id="t" gradientUnits="userSpaceOnUse" x1="25.3878" x2="30.6235" xlink:href="#h" y1="36.7726" y2="32.4841"/><linearGradient id="u" gradientUnits="userSpaceOnUse" x1="20.1981" x2="25.2209" xlink:href="#h" y1="35.2955" y2="30.7793"/><linearGradient id="v" gradientUnits="userSpaceOnUse" x1="23.047" x2="28.2827" xlink:href="#h" y1="38.6144" y2="34.3259"/><linearGradient id="w" gradientUnits="userSpaceOnUse" x1="17.9463" x2="22.9691" xlink:href="#h" y1="37.0673" y2="32.5512"/><linearGradient id="x" gradientUnits="userSpaceOnUse" x1="20.7953" x2="26.031" xlink:href="#h" y1="40.3862" y2="36.0976"/><linearGradient id="y" gradientUnits="userSpaceOnUse" x1="42.5329" x2="46.8024" xlink:href="#j" y1="31.6739" y2="27.6961"/><linearGradient id="z" gradientUnits="userSpaceOnUse" x1="42.4718" x2="47.4946" xlink:href="#h" y1="29.1303" y2="24.6141"/><linearGradient id="A" gradientUnits="userSpaceOnUse" x1="45.3209" x2="50.5566" xlink:href="#h" y1="32.4491" y2="28.1606"/><linearGradient id="B" gradientUnits="userSpaceOnUse" x1="40.1313" x2="45.154" xlink:href="#h" y1="30.972" y2="26.4558"/><linearGradient id="C" gradientUnits="userSpaceOnUse" x1="42.9802" x2="48.2159" xlink:href="#h" y1="34.2909" y2="30.0024"/><linearGradient id="D" gradientUnits="userSpaceOnUse" x1="37.8794" x2="42.9022" xlink:href="#h" y1="32.7438" y2="28.2276"/><linearGradient id="E" gradientUnits="userSpaceOnUse" x1="40.7283" x2="45.964" xlink:href="#h" y1="36.0627" y2="31.7742"/><mask id="F" height="7" maskUnits="userSpaceOnUse" width="7" x="26" y="1"><path d="m27.5799 2.58543c1.2137-1.02796 3.0377-.95951 4.0741.15288s.8926 2.84749-.3211 3.87544c-1.2137 1.02796-3.0378.95951-4.0742-.15288-1.0363-1.11239-.8926-2.84748.3212-3.87544z" fill="#c4c4c4"/></mask><mask id="G" height="6" maskUnits="userSpaceOnUse" width="6" x="22" y="31"><path d="m23.1219 32.2161c1.2137-1.028 3.0377-.9595 4.0741.1529s.8926 2.8475-.3211 3.8754c-1.2137 1.028-3.0378.9595-4.0742-.1529-1.0363-1.1123-.8926-2.8474.3212-3.8754z" fill="#c4c4c4"/></mask><mask id="H" height="6" maskUnits="userSpaceOnUse" width="6" x="42" y="27"><path d="m43.0551 27.8927c1.2137-1.028 3.0377-.9595 4.0741.1529s.8926 2.8474-.3211 3.8754-3.0378.9595-4.0741-.1529c-1.0364-1.1124-.8926-2.8475.3211-3.8754z" fill="#c4c4c4"/></mask><path d="m20.694 6.75825c.1584-.33608.5566-.47479.8894-.3098l10.9657 5.43505c.3329.165.4744.5712.3161.9072l-2.3677 5.0257c-.1583.3361-.5565.4748-.8894.3098l-10.9657-5.435c-.3328-.165-.4743-.5712-.316-.9072z" fill="url(#b)"/><path d="m27.4416 13.138c-.5336 1.1326-1.8511 1.6121-2.9427 1.0711-1.0916-.5411-1.544-1.8978-1.0104-3.0305.5335-1.1326 1.851-1.61212 2.9426-1.0711 1.0917.5411 1.5441 1.8979 1.0105 3.0305z" fill="#fff"/><path d="m36.9194 20.4674c-.3085-.207-.3858-.6215-.1727-.9258l11.0031-15.71278c.2131-.30431.636-.3832.9444-.17619l7.5422 5.06101c.3085.20701.3858.62152.1727.92584l-11.0031 15.71272c-.2131.3044-.6359.3832-.9444.1762z" fill="url(#c)"/><path d="m48.2677 12.0262c1.571 1.0542 1.9885 3.1313.9324 4.6395-1.0561 1.5081-3.1858 1.876-4.7568.8218-1.5711-1.0542-1.9885-3.1314-.9325-4.6395 1.0561-1.5081 3.1858-1.8761 4.7569-.8218z" fill="#fff"/><path d="m64.3302 19.8547c.3031.2148.3698.6312.1491.93l-7.6095 10.2981c-.2207.2988-.6455.3669-.9486.1521l-4.7673-3.3782c-.3031-.2147-.3699-.6311-.1491-.9299l7.6094-10.2981c.2208-.2988.6455-.3669.9486-.1521z" fill="url(#d)"/><path d="m56.5327 25.5932c-1.0641-.754-1.3153-2.1927-.5611-3.2134.7542-1.0206 2.2282-1.2368 3.2923-.4828 1.064.754 1.3153 2.1927.5611 3.2134s-2.2282 1.2368-3.2923.4828z" fill="#fff"/><path d="m25.5866 40.3353c.3032.2148.3699.6312.1491.93l-7.6094 10.2981c-.2208.2988-.6455.3669-.9486.1521l-4.7673-3.3782c-.3032-.2148-.3699-.6311-.1491-.9299l7.6094-10.2981c.2208-.2988.6455-.3669.9486-.1521z" fill="url(#e)"/><path d="m17.789 46.0738c-1.0641-.754-1.3153-2.1927-.5611-3.2134.7542-1.0206 2.2282-1.2368 3.2923-.4828s1.3153 2.1927.5611 3.2134-2.2282 1.2368-3.2923.4828z" fill="#fff"/><path d="m15.0148 34.6661c-.3421.145-.7314-.0171-.8695-.362l-2.1302-5.3188c-.1381-.3449.0272-.742.3693-.887l2.0705-.8774c.3421-.1449.7313.0171.8694.362l2.1303 5.3189c.1381.3449-.0273.7419-.3693.8869z" fill="url(#f)"/><path d="m14.3136 29.9725c.6004-.2544 1.2783.0168 1.5143.6059.2359.5891-.0596 1.2728-.66 1.5273-.6004.2544-1.2783-.0169-1.5143-.6059-.2359-.5891.0596-1.2729.66-1.5273z" fill="#fff"/><path d="m46.2056 34.5909c.2595-.2659.6811-.2668.9418-.0021l7.0072 7.1171c.2606.2648.2616.6949.0021.9607l-3.0817 3.1573c-.2595.2659-.6812.2668-.9418.0021l-7.0073-7.1171c-.2606-.2648-.2615-.6949-.002-.9608z" fill="url(#g)"/><path d="m49.8636 41.3814c-.7296.7475-1.8992.7663-2.6123.042s-.6998-1.9174.0298-2.6649 1.8992-.7663 2.6123-.042.6998 1.9175-.0298 2.6649z" fill="#fff"/><g clip-rule="evenodd" fill="#ffdbeb" fill-rule="evenodd"><path d="m67.9737 28.9643c.1593.2654.0732.6098-.1923.7691-1.9471 1.1682-4.2107 1.7505-6.4766 2.1211-1.1351.1856-2.2818.3197-3.3974.4453-.1229.0138-.2454.0275-.3674.0412-.9901.1109-1.9507.2185-2.8699.3541-.7856.1159-1.5692.2215-2.3485.3265-4.5203.6091-8.8999 1.1992-12.7333 3.6774-3.5847 2.3174-6.7585 6.4392-8.0858 10.5417-.9124 2.8201-.2637 4.9705 1.0826 7.6236.1401.276.0299.6134-.2462.7535-.276.1401-.6134.0299-.7535-.2462-1.4011-2.7609-2.1957-5.2424-1.1496-8.476 1.4067-4.348 4.7422-8.6805 8.5439-11.1382 4.062-2.6259 8.7242-3.2502 13.2358-3.8543.7693-.103 1.5342-.2055 2.291-.3171.9399-.1387 1.921-.2486 2.9083-.3592.1223-.0137.2448-.0274.3673-.0412 1.1153-.1254 2.2372-.2569 3.3417-.4376 2.2134-.362 4.3133-.9155 6.0808-1.976.2655-.1593.6098-.0732.7691.1923z"/><path d="m28.6754 5.75336c.2189-.21892.5739-.21892.7928 0 3.4847 3.4847 6.7039 8.32934 7.2895 13.40424.7037 6.0995-.996 11.8851-2.6514 17.5196-.2562.872-.5113 1.7402-.7562 2.6055-.2315.8177-.4833 1.6254-.7338 2.4294-.489 1.5689-.9735 3.1236-1.2945 4.7101-.4793 2.3682-.5639 4.6962.2848 6.9949.1073.2904-.0413.6128-.3317.72s-.6128-.0413-.72-.3317c-.9478-2.567-.8337-5.1263-.332-7.6056.3319-1.6401.8471-3.2949 1.3463-4.8984.2458-.7898.4878-1.5671.7021-2.3241.2502-.8838.5082-1.7636.7654-2.6408 1.6569-5.6501 3.2828-11.195 2.6072-17.0504-.5448-4.7218-3.5734-9.34488-6.9685-12.73998-.2189-.21891-.2189-.57385 0-.79276z"/><path d="m6.97382 31.7647c.2769-.1385.61362-.0262.75208.2507.10662.2132.39979.4446.8838.6785.32323.1562.64996.2783.96232.395.14633.0546.2895.1081.42767.1634 1.76561.7062 3.30711 1.1756 5.17071 1.5324.5416.1037 1.0984.2025 1.6639.3028 1.7079.3028 3.4951.6197 5.1797 1.1297 2.2604.6843 4.4136 1.735 6.0834 3.6304 1.7081 1.9389 2.59 3.8278 2.9785 5.8492.3849 2.0025.2795 4.109.0608 6.4596-.0286.3083-.3018.5349-.6101.5062-.3082-.0286-.5349-.3018-.5062-.61.2178-2.3415.307-4.3103-.0455-6.1442-.3488-1.8148-1.136-3.523-2.7188-5.3197-1.4813-1.6815-3.4175-2.6478-5.567-3.2985-1.615-.4889-3.307-.7891-4.9979-1.089-.5784-.1026-1.1566-.2052-1.7316-.3153-1.9411-.3717-3.5514-.8627-5.37629-1.5926-.09586-.0384-.21284-.0822-.34303-.1309-.33092-.1239-.74713-.2797-1.1184-.4591-.50795-.2454-1.11195-.6129-1.39876-1.1865-.13845-.2769-.02621-.6137.2507-.7521z"/></g><path d="m7.41663 76.2704c-.47144-1.5816.71334-3.171 2.36373-3.171h41.10704c1.5741 0 2.7454 1.4544 2.4098 2.9923l-6.5392 29.9673c-.2472 1.133-1.2502 1.941-2.4098 1.941h-25.6354c-1.0909 0-2.0522-.716-2.3638-1.762z" fill="url(#i)"/><path d="m.886963 54.8939c0-1.3622 1.104287-2.4665 2.466497-2.4665h53.71494c1.3622 0 2.4665 1.1043 2.4665 2.4665v19.364c0 1.3623-1.1043 2.4665-2.4665 2.4665h-53.71493c-1.36221 0-2.466507-1.1043-2.466507-2.4665z" fill="#b2eefc"/><path d="m27.2722 2.31675c1.231-1.04261 3.1308-.91985 4.2432.27421 1.1125 1.19405 1.0164 3.00723-.2147 4.04985-1.231 1.04261-3.1307.91984-4.2432-.27421-1.1124-1.19406-1.0163-3.00724.2147-4.04985z" fill="url(#k)"/><g mask="url(#F)"><path d="m26.3511 2.88231-.0113-1.32407c.0185-.3291.2485-.59793.6309-.52234l6.3517.08217c.2192.01759.3448.0213.4661.1562l-2.9766 2.34208-3.8497-.14183c-.3016.01434-.6296-.26311-.6111-.59221z" fill="url(#l)"/><path d="m30.6845 7.93065 1.3546.26718c.3408.04635.6608-.11756.6574-.4914l1.1465-5.98199c.0245-.20922.045-.32796-.0697-.46802l-2.9766 2.34208-.6006 3.64342c-.0731.28046.1476.64238.4884.68873z" fill="url(#m)"/><path d="m24.0105 4.72411-.0113-1.32407c.0185-.32911.2485-.59793.6309-.52235l6.3518.08218c.2191.01758.3447.0213.466.1562l-2.9766 2.34207-3.8497-.14183c-.3015.01435-.6296-.2631-.6111-.5922z" fill="url(#n)"/><path d="m28.3438 9.77238 1.3546.26722c.3408.0463.6608-.11759.6574-.49143l1.1465-5.98199c.0245-.20923.045-.32796-.0697-.46802l-2.9766 2.34207-.6006 3.64342c-.0731.28047.1476.64238.4884.68873z" fill="url(#o)"/><path d="m21.7587 6.4959-.0113-1.32407c.0185-.32911.2485-.59793.6309-.52235l6.3517.08218c.2191.01758.3448.0213.4661.1562l-2.9766 2.34207-3.8497-.14183c-.3016.01435-.6297-.2631-.6111-.5922z" fill="url(#p)"/><path d="m26.092 11.5442 1.3545.2672c.3409.0463.6609-.1176.6575-.4914l1.1465-5.98203c.0245-.20923.045-.32796-.0697-.46803l-2.9766 2.34208-.6006 3.64338c-.0732.2805.1476.6424.4884.6888z" fill="url(#q)"/></g><path d="m22.8141 31.9474c1.231-1.0426 3.1307-.9199 4.2432.2742 1.1124 1.194 1.0163 3.0072-.2147 4.0498s-3.1308.9199-4.2432-.2742c-1.1125-1.194-1.0163-3.0072.2147-4.0498z" fill="url(#r)"/><g mask="url(#G)"><path d="m21.8933 32.513-.0113-1.3241c.0186-.3291.2485-.5979.6309-.5223l6.3518.0821c.2191.0176.3447.0213.466.1562l-2.9766 2.3421-3.8497-.1418c-.3015.0143-.6296-.2631-.6111-.5922z" fill="url(#s)"/><path d="m26.2266 37.5613 1.3546.2672c.3408.0463.6608-.1176.6575-.4915l1.1465-5.9819c.0244-.2093.0449-.328-.0698-.4681l-2.9766 2.3421-.6006 3.6434c-.0731.2805.1476.6424.4884.6888z" fill="url(#t)"/><path d="m19.5525 34.3548-.0113-1.3241c.0185-.3291.2485-.5979.6309-.5223l6.3518.0821c.2191.0176.3447.0213.466.1562l-2.9766 2.3421-3.8497-.1418c-.3016.0143-.6296-.2631-.6111-.5922z" fill="url(#u)"/><path d="m23.8858 39.4031 1.3546.2671c.3408.0464.6608-.1175.6574-.4914l1.1465-5.9819c.0245-.2093.045-.328-.0697-.4681l-2.9766 2.3421-.6006 3.6434c-.0731.2805.1476.6424.4884.6888z" fill="url(#v)"/><path d="m17.3007 36.1266-.0113-1.324c.0185-.3291.2485-.598.6309-.5224l6.3517.0822c.2191.0176.3448.0213.4661.1562l-2.9766 2.3421-3.8497-.1419c-.3016.0144-.6297-.2631-.6111-.5922z" fill="url(#w)"/><path d="m21.6341 41.1749 1.3546.2671c.3408.0464.6608-.1175.6574-.4914l1.1465-5.982c.0245-.2092.045-.3279-.0697-.468l-2.9766 2.3421-.6006 3.6434c-.0731.2805.1476.6424.4884.6888z" fill="url(#x)"/></g><path d="m42.7475 27.6241c1.2311-1.0427 3.1308-.9199 4.2433.2742 1.1124 1.194 1.0163 3.0072-.2147 4.0498s-3.1308.9199-4.2432-.2742c-1.1125-1.194-1.0164-3.0072.2146-4.0498z" fill="url(#y)"/><g mask="url(#H)"><path d="m41.8262 28.1896-.0113-1.3241c.0185-.3291.2485-.5979.6309-.5224l6.3517.0822c.2192.0176.3448.0213.4661.1562l-2.9766 2.3421-3.8497-.1418c-.3016.0143-.6296-.2631-.6111-.5922z" fill="url(#z)"/><path d="m46.1597 33.2378 1.3546.2672c.3408.0464.6608-.1175.6575-.4914l1.1465-5.982c.0244-.2092.0449-.3279-.0698-.468l-2.9766 2.3421-.6006 3.6434c-.0731.2805.1476.6424.4884.6887z" fill="url(#A)"/><path d="m39.4856 30.0313-.0113-1.3241c.0185-.3291.2485-.5979.6309-.5223l6.3518.0822c.2191.0175.3447.0213.466.1562l-2.9766 2.342-3.8497-.1418c-.3015.0143-.6296-.2631-.6111-.5922z" fill="url(#B)"/><path d="m43.819 35.0796 1.3546.2672c.3408.0463.6608-.1176.6575-.4914l1.1465-5.982c.0244-.2093.0449-.328-.0698-.4681l-2.9766 2.3421-.6006 3.6434c-.0731.2805.1476.6424.4884.6888z" fill="url(#C)"/><path d="m37.2338 31.8031-.0113-1.3241c.0185-.3291.2485-.5979.6309-.5223l6.3517.0821c.2191.0176.3448.0213.4661.1562l-2.9766 2.3421-3.8497-.1418c-.3016.0143-.6297-.2631-.6111-.5922z" fill="url(#D)"/><path d="m41.5671 36.8514 1.3545.2672c.3409.0464.6609-.1176.6575-.4914l1.1465-5.982c.0244-.2092.045-.3279-.0697-.468l-2.9766 2.3421-.6006 3.6434c-.0732.2805.1476.6424.4884.6887z" fill="url(#E)"/></g></svg>