<svg fill="none" height="413" viewBox="0 0 209 413" width="209" xmlns="http://www.w3.org/2000/svg" xmlns:xlink="http://www.w3.org/1999/xlink"><filter id="a" color-interpolation-filters="sRGB" filterUnits="userSpaceOnUse" height="413" width="385" x="0" y="0"><feFlood flood-opacity="0" result="BackgroundImageFix"/><feColorMatrix in="SourceAlpha" type="matrix" values="0 0 0 0 0 0 0 0 0 0 0 0 0 0 0 0 0 0 127 0"/><feOffset dy="28"/><feGaussianBlur stdDeviation="68.5"/><feColorMatrix type="matrix" values="0 0 0 0 0.0937216 0 0 0 0 0.496382 0 0 0 0 0.862484 0 0 0 0.344429 0"/><feBlend in2="BackgroundImageFix" mode="normal" result="effect1_dropShadow"/><feBlend in="SourceGraphic" in2="effect1_dropShadow" mode="normal" result="shape"/></filter><linearGradient id="b" gradientUnits="userSpaceOnUse" x1="192.5" x2="192.5" y1="109" y2="248"><stop offset="0" stop-color="#00b8f0"/><stop offset=".0001" stop-color="#00b8f0"/><stop offset=".739583" stop-color="#b2eefc"/></linearGradient><g filter="url(#a)"><path d="m152.497 248v-20.831h-15.497v-18.883h15.497v-15.185h-15.497v-24.14h15.497v-59.961h44.168c17.822 0 30.801 3.634 38.937 10.902 8.265 7.268 12.398 17.261 12.398 29.98 0 7.528-1.679 14.601-5.037 21.22-3.357 6.619-8.975 11.94-16.853 15.964-7.749 4.023-18.339 6.035-31.77 6.035h-12.591v15.185h29.832v18.883h-29.832v20.831zm29.252-79.039h9.686c8.265 0 14.787-1.428 19.565-4.283 4.908-2.855 7.361-7.463 7.361-13.822 0-11.811-7.748-17.716-23.246-17.716h-13.366z" fill="url(#b)"/></g></svg>