<svg fill="none" height="944" viewBox="0 0 533 944" width="533" xmlns="http://www.w3.org/2000/svg" xmlns:xlink="http://www.w3.org/1999/xlink"><filter id="a" color-interpolation-filters="sRGB" filterUnits="userSpaceOnUse" height="943.292" width="811.121" x=".688843" y=".260254"><feFlood flood-opacity="0" result="BackgroundImageFix"/><feColorMatrix in="SourceAlpha" type="matrix" values="0 0 0 0 0 0 0 0 0 0 0 0 0 0 0 0 0 0 127 0"/><feOffset dy="28"/><feGaussianBlur stdDeviation="68.5"/><feColorMatrix type="matrix" values="0 0 0 0 0.0937216 0 0 0 0 0.496382 0 0 0 0 0.862484 0 0 0 0.344429 0"/><feBlend in2="BackgroundImageFix" mode="normal" result="effect1_dropShadow"/><feBlend in="SourceGraphic" in2="effect1_dropShadow" mode="normal" result="shape"/></filter><linearGradient id="b" gradientUnits="userSpaceOnUse" x1="406.249" x2="406.249" y1="109.26" y2="778.552"><stop offset="0" stop-color="#00b8f0"/><stop offset=".0001" stop-color="#00b8f0"/><stop offset=".739583" stop-color="#b2eefc"/></linearGradient><g filter="url(#a)"><path d="m212.68 778.552v-100.3h-74.991v-90.926h74.991v-73.116h-74.991v-116.235h74.991v-288.715h213.723c86.24 0 149.044 17.498 188.414 52.494 39.995 34.995 59.993 83.114 59.993 144.357 0 36.245-8.124 70.304-24.372 102.175s-43.432 57.493-81.553 76.865c-37.495 19.373-88.738 29.059-153.73 29.059h-60.93v73.116h144.357v90.926h-144.357v100.3zm141.545-380.577h46.869c39.995 0 71.554-6.875 94.676-20.623 23.747-13.748 35.62-35.933 35.62-66.554 0-56.868-37.495-85.302-112.486-85.302h-64.679z" fill="url(#b)"/></g></svg>