<svg fill="none" height="292" viewBox="0 0 252 292" width="252" xmlns="http://www.w3.org/2000/svg" xmlns:xlink="http://www.w3.org/1999/xlink"><linearGradient id="a"><stop offset="0" stop-color="#00b8f0"/><stop offset=".0001" stop-color="#00b8f0"/><stop offset=".739583" stop-color="#b2eefc"/></linearGradient><linearGradient id="b" gradientUnits="userSpaceOnUse" x1="236.134" x2="244.752" xlink:href="#a" y1="44.106" y2="364.383"/><linearGradient id="c" gradientUnits="userSpaceOnUse" x1="14.0811" x2="8.92638" xlink:href="#a" y1="45.3058" y2="365.639"/><linearGradient id="d" gradientUnits="userSpaceOnUse" x1="235.189" x2="243.807" xlink:href="#a" y1="-96.8933" y2="223.383"/><linearGradient id="e" gradientUnits="userSpaceOnUse" x1="13.1352" x2="7.98046" xlink:href="#a" y1="-95.6925" y2="224.641"/><linearGradient id="f" gradientUnits="userSpaceOnUse" x1="234.279" x2="242.897" xlink:href="#a" y1="-232.538" y2="87.7388"/><linearGradient id="g" gradientUnits="userSpaceOnUse" x1="12.226" x2="7.07122" xlink:href="#a" y1="-231.337" y2="88.9962"/><mask id="h" height="292" maskUnits="userSpaceOnUse" width="252" x="0" y="0"><path d="m126.299 291.081c-6.324 0-10.539-1.914-11.042-2.098-1.239-.449-114.757-45.332-114.757-183.085v-100.66308c0-2.42689 2.012-4.396541 4.49107-4.396541h242.51793c2.479 0 4.491 2.392271 4.491 4.396541v100.66308c0 130.82-101.827 177.876-113.137 182.672-.713.302-1.349.605-2.09.83-2.235.681-7.176 1.681-10.474 1.681z" fill="#fff"/></mask><g mask="url(#h)"><path d="m294.025 49.6115 53.503 40.168c12.633 10.7555 16.253 27.3015 1.295 38.7995l-201.347 226.932c-7.538 7.377-11.605 11.802-20.802 12.049l-1.202-179.302 125.727-134.7203c8.827-11.3329 30.194-14.6817 42.826-3.9262z" fill="url(#b)"/><path d="m-43.7323 51.4367-52.9603 40.7436c-12.4874 10.8917-15.8854 27.4747-.7748 38.8107l204.3764 224.739c7.637 7.294 11.762 11.675 20.962 11.823l-1.203-179.302-127.524831-133.3513c-8.978109-11.2366-30.388169-14.3542-42.875469-3.463z" fill="url(#c)"/><path d="m293.08-91.3878 53.503 40.1681c12.633 10.7554 16.253 27.3011 1.295 38.799l-201.347 226.9327c-7.538 7.376-11.605 11.801-20.802 12.049l-1.202-179.3023 125.727-134.7202c8.827-11.333 30.194-14.6815 42.826-3.9263z" fill="url(#d)"/><path d="m-44.6783-89.5615-52.9603 40.7435c-12.4874 10.8913-15.8854 27.4749-.7747 38.8103l204.3763 224.7387c7.637 7.295 11.762 11.676 20.962 11.824l-1.202-179.3024-127.52575-133.3512c-8.97815-11.2366-30.38825-14.3544-42.87555-3.4629z" fill="url(#e)"/><path d="m292.17-227.032 53.503 40.168c12.633 10.755 16.253 27.301 1.296 38.799l-201.348 226.9322c-7.538 7.3766-11.605 11.8015-20.802 12.049l-1.202-179.3021 125.728-134.7201c8.826-11.333 30.193-14.682 42.825-3.926z" fill="url(#f)"/><path d="m-45.5875-225.206-52.9603 40.743c-12.4872 10.892-15.8862 27.475-.7747 38.811l204.3765 224.7389c7.636 7.2946 11.762 11.6752 20.962 11.8233l-1.203-179.3021-127.52499-133.3511c-8.97811-11.237-30.38821-14.354-42.87551-3.463z" fill="url(#g)"/></g></svg>