<svg fill="none" height="40" viewBox="0 0 41 40" width="41" xmlns="http://www.w3.org/2000/svg" xmlns:xlink="http://www.w3.org/1999/xlink"><linearGradient id="a" gradientUnits="userSpaceOnUse" x1="20.399" x2="20.399" y1="0" y2="40"><stop offset="0" stop-color="#00b8f0"/><stop offset=".0001" stop-color="#00b8f0"/><stop offset=".739583" stop-color="#b2eefc"/></linearGradient><path clip-rule="evenodd" d="m20.399 40c-11.04567 0-19.999952-8.9543-19.999952-20 0-11.04571 8.954282-20 19.999952-20 11.0458 0 20 8.95429 20 20 0 11.0457-8.9542 20-20 20zm11.3462-28.232c-.9531.528-2.0068.912-3.1291 1.12-.8972-.8983-2.1783-1.4583-3.5943-1.4583-2.72 0-4.9269 2.0663-4.9269 4.616 0 .3623.0435.7154.128 1.0514-4.0937-.192-7.7234-2.0297-10.1531-4.8228-.42287.6822-.6663 1.4742-.6663 2.3211 0 1.6011.8697 3.0149 2.1909 3.8423-.8069-.024-1.5658-.2309-2.2309-.5772v.0583c0 2.2366 1.6971 4.1029 3.9509 4.5257-.4126.1063-.848.1612-1.2972.1612-.3177 0-.6263-.0274-.9268-.08.6262 1.832 2.4457 3.1668 4.6011 3.2046-1.6857 1.2377-3.8091 1.976-6.11772 1.976-.39771 0-.78971-.0218-1.17485-.064 2.17947 1.3085 4.76917 2.0731 7.55087 2.0731 9.0606 0 14.0148-7.0354 14.0148-13.1337 0-.2012-.0057-.4-.0148-.5989.9623-.6514 1.7977-1.4628 2.4583-2.3885-.8835.368-1.8332.6148-2.8286.7268 1.0171-.5726 1.7977-1.4766 2.1657-2.5531z" fill="url(#a)" fill-rule="evenodd"/></svg>