<svg fill="none" height="128" viewBox="0 0 114 128" width="114" xmlns="http://www.w3.org/2000/svg" xmlns:xlink="http://www.w3.org/1999/xlink"><linearGradient id="a" gradientUnits="userSpaceOnUse" x1="59.6317" x2="61.8423" y1="20.3122" y2="52.2234"><stop offset="0" stop-color="#1792c7"/><stop offset="1" stop-color="#00b8f0"/></linearGradient><linearGradient id="b"><stop offset="0" stop-color="#00b8f0"/><stop offset=".0001" stop-color="#00b8f0"/><stop offset=".739583" stop-color="#b2eefc"/></linearGradient><linearGradient id="c" gradientUnits="userSpaceOnUse" x1="67.1659" x2="67.1659" xlink:href="#b" y1="34.1049" y2="115.847"/><linearGradient id="d" gradientUnits="userSpaceOnUse" x1="109.477" x2="51.797" y1="4.49386" y2="53.2435"><stop offset="0" stop-color="#fa9ec2"/><stop offset="1" stop-color="#ffdbeb"/></linearGradient><linearGradient id="e" gradientUnits="userSpaceOnUse" x1="42.1549" x2="55.8104" xlink:href="#b" y1="21.636" y2="54.9153"/><linearGradient id="f"><stop offset="0" stop-color="#6fc7a1"/><stop offset="1" stop-color="#dbfbdf"/></linearGradient><linearGradient id="g" gradientUnits="userSpaceOnUse" x1="64.2051" x2="64.2051" xlink:href="#f" y1="29.6586" y2="46.8927"/><linearGradient id="h" gradientUnits="userSpaceOnUse" x1="23.9109" x2="23.9109" xlink:href="#f" y1="83.5577" y2="127.748"/><linearGradient id="i" gradientUnits="userSpaceOnUse" x1="30.448" x2="30.448" xlink:href="#f" y1="38.2757" y2="79.2117"/><linearGradient id="j" gradientUnits="userSpaceOnUse" x1="34.4784" x2="34.4784" xlink:href="#f" y1="68.4428" y2="92.6357"/><path d="m58.1116 25.5242c.5206-1.7852 2.9826-1.9557 3.7444-.2594l7.0752 15.7537c.5701 1.2693-.298 2.7184-1.6862 2.8146l-11.9107.825c-1.3881.0962-2.4478-1.2194-2.0582-2.5552z" fill="url(#a)"/><path clip-rule="evenodd" d="m60.7371 34.1049c10.6462 0 19.4031 7.6532 20.4604 17.462l5.4781 17.8024c4.2277.542 7.4865 3.9706 7.4865 8.1193 0 4.5254-3.8773 8.194-8.6602 8.194-3.9677 0-7.3123-2.5247-8.337-5.9687l-8.6245-3.1963-23.4622 38.3694c-1.048 1.714-3.6858.986-3.7062-1.023l-.5632-55.4668c-.4173-1.5451-.6391-3.1642-.6391-4.8323 0-10.7475 9.2083-19.46 20.5674-19.46z" fill="url(#c)" fill-rule="evenodd"/><path d="m91.2796 17.2654c1.9952-1.4003 4.2849 1.3088 2.5717 3.0427l-22.8074 23.0833c-.826.8361-2.1915.783-2.9502-.1147l-3.7537-4.4413c-.7586-.8976-.5834-2.2528.3786-2.928z" fill="url(#d)"/><path d="m42.1723 26.5597c-.0063-1.7951 2.1722-2.689 3.4285-1.4068l14.8548 15.1603c.9934 1.0139.6439 2.7112-.6693 3.25l-14.7796 6.0645c-1.3132.5389-2.7542-.4237-2.7592-1.8432z" fill="url(#e)"/><ellipse cx="64.2051" cy="38.2757" fill="url(#g)" rx="9.47461" ry="8.61709"/><ellipse cx="23.9109" cy="105.653" fill="url(#h)" rx="23.3523" ry="22.0949"/><ellipse cx="30.448" cy="58.7437" fill="url(#i)" rx="21.6328" ry="20.468"/><ellipse cx="34.4784" cy="80.5392" fill="url(#j)" rx="12.7848" ry="12.0964"/><g fill="#3e464f"><ellipse cx="65.2915" cy="55.4637" rx="2.38477" ry="2.5351"/><ellipse cx="86.0419" cy="75.3172" rx="1.02363" ry="1.68871"/></g></svg>