<svg fill="none" height="40" viewBox="0 0 62 40" width="62" xmlns="http://www.w3.org/2000/svg" xmlns:xlink="http://www.w3.org/1999/xlink"><linearGradient id="a" gradientUnits="userSpaceOnUse" x1="25.6235" x2="25.6235" y1="2.18738" y2="36.1477"><stop offset="0" stop-color="#1792c7"/><stop offset="1" stop-color="#00b8f0"/></linearGradient><linearGradient id="b" gradientUnits="userSpaceOnUse" x1="33.8544" x2="33.8544" y1="2.1593" y2="36.1197"><stop offset="0" stop-color="#00b8f0"/><stop offset=".0001" stop-color="#00b8f0"/><stop offset=".739583" stop-color="#b2eefc"/></linearGradient><path d="m44.8135 7.32701-4.8273-4.39375c-1.1358-1.17167-3.1235-.87875-3.9754.29292l-13.63 16.69622-7.9508-7.03c-1.1359-.8787-3.1236-.8787-3.9754.2929l-4.25942 5.2725c-1.13584 1.1717-.85188 3.2221.28396 4.1009l14.76586 12.8883c.5679.5858 1.4198.8787 2.2716.5858.8519 0 1.7038-.2929 1.9877-1.1717l19.3092-23.4333c1.4198-1.1716 1.1358-3.22205 0-4.10079z" fill="url(#a)"/><path d="m52.9865 7.29893-4.8273-4.39375c-1.1358-1.17166-3.1235-.87875-3.9754.29292l-13.63 16.6962-7.9509-7.03c-1.1358-.8787-3.1235-.8787-3.9754.5859l-4.2593 4.9796c-.8519 1.1716-.8519 3.222.2839 4.1008l14.7658 12.8883c.568.5858 1.4198.8788 2.2717.5858.8519 0 1.7038-.2929 1.9877-1.1716l19.3092-23.4333c1.4198-1.1717 1.1358-2.9292 0-4.10087z" fill="url(#b)"/></svg>