<svg fill="none" height="819" viewBox="0 0 210 819" width="210" xmlns="http://www.w3.org/2000/svg"><g stroke="#3898fe" stroke-opacity=".187528"><path d="m-265.055 154.617.013-.015.012-.016c14.316-18.936 47.716-23.648 66.78.057l.03.038.037.031 385.887 326.283.074.063.092.03c14.161 4.7 18.95 18.787 18.94 33.1v.081l.026.078c4.748 14.18-.012 28.367-9.556 37.835l-.015.015-.014.016-212.5241 249.172-.0095.011-.0089.012c-7.1478 9.454-19.0793 15.384-31.6335 16.563-12.5489 1.179-25.6634-2.393-35.1867-11.867l-.0161-.016-.0174-.014-86.8258-71.975-.01-.009-.01-.007c-9.494-7.083-14.27-18.911-14.861-31.397-.589-12.479 3.009-25.536 10.17-35.014l115.9101-134.156.3319-.385-.3892-.326-274.9468-230.319-.01-.009-.012-.009c-9.517-7.101-15.485-18.953-16.672-31.421-1.186-12.463 2.408-25.489 11.944-34.949l.011-.011.01-.012z"/><path d="m-337.895 98.1006.011-.0111.01-.0116 72.439-81.4462c9.588-9.5075 21.541-15.41987 33.456-16.003654 11.901-.58318 23.812 4.145594 33.36 16.017954l.03.0374.036.0311 385.888 326.2835.074.062.092.031c14.161 4.7 18.949 18.787 18.94 33.099v.082l.026.077c4.747 14.181-.012 28.368-9.557 37.836l-.014.015-.014.016-212.5243 249.172-.0095.011-.0089.012c-7.13 9.431-19.0378 14.177-31.6088 14.763-12.5627.586-25.7073-2.989-35.2492-10.101l-81.9843-71.959-.034-.031-.04-.023c-11.9-7.104-17.856-18.936-19.042-31.394-1.187-12.463 2.407-25.513 9.567-34.992l115.9109-134.156.3319-.384-.3892-.326-274.9466-230.319-.011-.01-.011-.008c-9.517-7.101-15.485-18.953-16.672-31.421-1.187-12.464 2.408-25.489 11.944-34.9494z"/></g></svg>