<svg fill="none" height="343" viewBox="0 0 818 343" width="818" xmlns="http://www.w3.org/2000/svg"><g stroke="#3898fe" stroke-opacity=".187528"><path d="m663.023-130.635.015.013.015.012c18.911 14.277 23.637 47.6124-.012 66.6572l-.037.0301-.031.0367-325.433 385.403-.063.074-.03.092c-4.682 14.138-18.739 18.927-33.026 18.927h-.081l-.078.026c-14.151 4.748-28.315.007-37.772-9.513l-.015-.015-.016-.014-248.8604-211.971-.0112-.01-.0117-.009c-9.44169-7.128-15.36825-19.034-16.55375-31.5641-1.184995-12.525 2.37203-25.6178 11.82135-35.1299l.016-.0161.0145-.0174 71.7867-86.7158.0081-.0098.0077-.0103c7.0638-9.4809 18.8667-14.2567 31.3287-14.8541 12.456-.5971 25.491 2.9865 34.957 10.1272l133.989 115.6102.385.3316.326-.3894 229.717-274.6001.009-.01.008-.012c7.082-9.504 18.908-15.469 31.353-16.662 12.439-1.193 25.444 2.387 34.893 11.898l.011.011.011.011z"/><path d="m719.388-203.38.011.011.011.01 81.347 72.253c9.496 9.564 15.405 21.492 15.996 33.3841.59 11.8784-4.122 23.7703-15.966 33.3085l-.037.0302-.031.0367-325.433 385.4035-.063.073-.03.092c-4.682 14.138-18.739 18.927-33.026 18.927h-.082l-.077.026c-14.151 4.749-28.315.007-37.772-9.513l-.015-.015-.016-.013-248.86-211.972-.012-.01-.011-.008c-9.419-7.111-14.164-18.9936-14.758-31.5412-.593-12.5392 2.967-25.6621 10.06-35.1911l71.773-81.8833.03-.0343.024-.0393c7.082-11.8827 18.889-17.8363 31.324-19.0284 12.438-1.1925 25.467 2.386 34.933 9.5267l133.989 115.6102.385.3317.326-.3894 229.717-274.5996.009-.011.008-.011c7.082-9.505 18.908-15.47 31.353-16.663 12.439-1.192 25.444 2.387 34.893 11.899z"/></g></svg>