<svg fill="none" height="560" viewBox="0 0 627 560" width="627" xmlns="http://www.w3.org/2000/svg"><g stroke="#3898fe" stroke-opacity=".187528"><path d="m663.352 85.996.015.0132.016.012c18.911 14.2778 23.637 47.6128-.012 66.6568l-.038.03-.031.037-325.433 385.403-.062.074-.03.092c-4.682 14.138-18.739 18.927-33.026 18.927h-.082l-.077.026c-14.151 4.749-28.315.007-37.772-9.513l-.015-.015-.016-.014-248.8605-211.971-.0112-.01-.0118-.009c-9.44165-7.128-15.36821-19.034-16.55372-31.564-1.184991-12.525 2.37204-25.618 11.82142-35.13l.016-.016.0144-.017 71.7867-86.716.0082-.01.0076-.01c7.0638-9.481 18.8669-14.257 31.3289-14.854 12.455-.597 25.491 2.986 34.957 10.127l133.989 115.61.385.332.325-.39 229.718-274.5996.009-.0108.008-.0113c7.082-9.50468 18.908-15.46929 31.353-16.66238 12.439-1.192572 25.444 2.38689 34.892 11.89848l.012.0111.011.0104z"/><path d="m719.717 13.2509.012.011.011.0104 81.346 72.2526c9.497 9.564 15.406 21.4921 15.997 33.3841.59 11.879-4.122 23.771-15.966 33.309l-.038.03-.031.037-325.433 385.403-.062.074-.03.091c-4.682 14.138-18.74 18.928-33.026 18.928h-.082l-.077.026c-14.151 4.748-28.315.006-37.773-9.514l-.014-.015-.016-.013-248.861-211.972-.011-.009-.012-.009c-9.418-7.111-14.163-18.994-14.757-31.541-.593-12.539 2.967-25.662 10.06-35.191l71.773-81.883.03-.035.024-.039c7.082-11.883 18.889-17.836 31.324-19.028 12.438-1.193 25.467 2.385 34.933 9.526l133.989 115.61.385.332.325-.389 229.718-274.6002.009-.0108.008-.0112c7.082-9.50476 18.908-15.46936 31.353-16.66246 12.439-1.192564 25.444 2.3869 34.892 11.89856z"/></g></svg>